# xmcd
#
# Track frame offsets:
#	150
#	8772
#	36533
#	60059
#	86696
#	113707
#	123250
#	144392
#	164346
#	187810
#	214014
#	241952
#	269222
#	299451
#
# Disc length: 4670 seconds
# Revision: 0
# Processed by: cddbd v1.5.2PL0 Copyright (c) Steve Scherf et al.
# Submitted via: dBpowerAMP V12.0
#
DISCID=c4123c0e
DTITLE=Quentin Harris - Sac•ri•fice
DYEAR=2010
DGENRE=Techno
TTITLE0=Prologue Sacrifice
TTITLE1=Wait (With Denise Henderson)
TTITLE2=Baby Gets High (With Drew Vision)
TTITLE3=Paradise (With Koffee)
TTITLE4=Circles (With Jason Walker)
TTITLE5=The Sacrificial Lamb (Interlude) (Feat. David Morales)
TTITLE6=Sacrifice (With Drew Vision)
TTITLE7=Why Me (With Cordell)
TTITLE8=Do The Right Thing (With Inaya Day)
TTITLE9=Apologize (With Aaron Carl)
TTITLE10=Silence
TTITLE11=Give It 2 U (With Ultra Nateé)
TTITLE12=Don't U Worry (With Georgia Cee)
TTITLE13=Home (With Jason Walker)
EXTD=
EXTT0=
EXTT1=
EXTT2=
EXTT3=
EXTT4=
EXTT5=
EXTT6=
EXTT7=
EXTT8=
EXTT9=
EXTT10=
EXTT11=
EXTT12=
EXTT13=
PLAYORDER=
